<svg xmlns="http://www.w3.org/2000/svg" xmlns:xlink="http://www.w3.org/1999/xlink" viewBox="0 0 252 144"><defs><style>.cls-1,.cls-3,.cls-8{fill:none;}.cls-2{fill:#e50000;fill-rule:evenodd;}.cls-3{stroke:#a0a0a0;}.cls-11,.cls-15,.cls-3,.cls-8,.cls-9{stroke-miterlimit:10;}.cls-4{fill:#06063f;}.cls-5{fill:url(#New_Pattern_3);}.cls-6{fill:url(#linear-gradient);}.cls-7{fill:#f9f9f9;}.cls-8{stroke:#d8d8d8;}.cls-8,.cls-9{stroke-width:2px;}.cls-11,.cls-15,.cls-9{stroke:#fff;}.cls-9{opacity:0.23;fill:url(#New_Pattern_4);}.cls-10{opacity:0.43;fill:url(#linear-gradient-2);}.cls-11{font-size:10.03px;font-family:ObjektivMk1-Regular, Objektiv Mk1;}.cls-11,.cls-15{fill:#fff;stroke-width:0.5px;}.cls-12{letter-spacing:0em;}.cls-13{letter-spacing:0em;}.cls-14{letter-spacing:-0.03em;}</style><pattern id="New_Pattern_3" data-name="New Pattern 3" width="112" height="176" patternTransform="translate(-28.45 -10.16)" patternUnits="userSpaceOnUse" viewBox="0 0 112 176"><rect class="cls-1" width="112" height="176"/><path class="cls-2" d="M155,148.05h17.19v8.6H155L129.2,141.6H94.8L69,156.65H51.81v-8.6H69L94.8,137.3h34.4Zm0-17.2h17.19v8.6H155L129.2,133H94.8L69,139.45H51.81v-8.6H69l25.8-2.15h34.4Zm0,81.7h17.19v8.6H155l-25.8,2.15H94.8L69,221.15H51.81v-8.6H69L94.8,219h34.4Zm0-17.2h17.19V204H155L129.2,214.7H94.8L69,204H51.81v-8.6H69L94.8,210.4h34.4Zm0-8.6h17.19v4.3H155l-25.8,15H94.8l-25.8-15H51.81v-4.3H69L94.8,197.5h34.4Zm0-8.6h17.19v4.3H155l-25.8,6.45H94.8L69,182.45H51.81v-4.3H69l25.8,2.15h34.4Zm0-8.6h17.19v4.3H155l-25.8-2.15H94.8L69,173.85H51.81v-4.3H69l25.8-6.45h34.4Zm0-8.6h17.19v4.3H155L129.2,154.5H94.8L69,165.25H51.81V161H69l25.8-15h34.4Z"/><path class="cls-2" d="M43,148.05H60.19v8.6H43L17.2,141.6H-17.2L-43,156.65H-60.19v-8.6H-43l25.8-10.75H17.2Zm0-17.2H60.19v8.6H43L17.2,133H-17.2L-43,139.45H-60.19v-8.6H-43l25.8-2.15H17.2Zm0,81.7H60.19v8.6H43L17.2,223.3H-17.2L-43,221.15H-60.19v-8.6H-43L-17.2,219H17.2Zm0-17.2H60.19V204H43L17.2,214.7H-17.2L-43,204H-60.19v-8.6H-43l25.8,15.05H17.2Zm0-8.6H60.19v4.3H43l-25.8,15H-17.2l-25.8-15H-60.19v-4.3H-43l25.8,10.75H17.2Zm0-8.6H60.19v4.3H43L17.2,188.9H-17.2L-43,182.45H-60.19v-4.3H-43l25.8,2.15H17.2Zm0-8.6H60.19v4.3H43L17.2,171.7H-17.2L-43,173.85H-60.19v-4.3H-43l25.8-6.45H17.2Zm0-8.6H60.19v4.3H43L17.2,154.5H-17.2L-43,165.25H-60.19V161H-43l25.8-15H17.2Z"/><path class="cls-2" d="M211,60.05h17.19v8.6H211L185.2,53.6H150.8L125,68.65H107.81v-8.6H125L150.8,49.3h34.4Zm0-17.2h17.19v8.6H211L185.2,45H150.8L125,51.45H107.81v-8.6H125l25.8-2.15h34.4Zm0,81.7h17.19v8.6H211l-25.8,2.15H150.8L125,133.15H107.81v-8.6H125L150.8,131h34.4Zm0-17.2h17.19V116H211L185.2,126.7H150.8L125,116H107.81v-8.6H125l25.8,15.05h34.4Zm0-8.6h17.19v4.3H211l-25.8,15H150.8l-25.8-15H107.81v-4.3H125l25.8,10.75h34.4Zm0-8.6h17.19v4.3H211l-25.8,6.45H150.8L125,94.45H107.81v-4.3H125l25.8,2.15h34.4Zm0-8.6h17.19v4.3H211L185.2,83.7H150.8L125,85.85H107.81v-4.3H125l25.8-6.45h34.4Zm0-8.6h17.19v4.3H211L185.2,66.5H150.8L125,77.25H107.81V73H125L150.8,57.9h34.4Z"/><path class="cls-2" d="M99,60.05h17.19v8.6H99L73.2,53.6H38.8L13,68.65H-4.19v-8.6H13L38.8,49.3H73.2Zm0-17.2h17.19v8.6H99L73.2,45H38.8L13,51.45H-4.19v-8.6H13L38.8,40.7H73.2Zm0,81.7h17.19v8.6H99L73.2,135.3H38.8L13,133.15H-4.19v-8.6H13L38.8,131H73.2Zm0-17.2h17.19V116H99L73.2,126.7H38.8L13,116H-4.19v-8.6H13L38.8,122.4H73.2Zm0-8.6h17.19v4.3H99l-25.8,15H38.8l-25.8-15H-4.19v-4.3H13L38.8,109.5H73.2Zm0-8.6h17.19v4.3H99L73.2,100.9H38.8L13,94.45H-4.19v-4.3H13L38.8,92.3H73.2Zm0-8.6h17.19v4.3H99L73.2,83.7H38.8L13,85.85H-4.19v-4.3H13L38.8,75.1H73.2ZM99,73h17.19v4.3H99L73.2,66.5H38.8L13,77.25H-4.19V73H13L38.8,57.9H73.2Z"/><path class="cls-2" d="M-13,60.05H4.19v8.6H-13L-38.8,53.6H-73.2L-99,68.65h-17.19v-8.6H-99L-73.2,49.3h34.4Zm0-17.2H4.19v8.6H-13L-38.8,45H-73.2L-99,51.45h-17.19v-8.6H-99l25.8-2.15h34.4Zm0,81.7H4.19v8.6H-13l-25.8,2.15H-73.2L-99,133.15h-17.19v-8.6H-99L-73.2,131h34.4Zm0-17.2H4.19V116H-13L-38.8,126.7H-73.2L-99,116h-17.19v-8.6H-99l25.8,15.05h34.4Zm0-8.6H4.19v4.3H-13l-25.8,15H-73.2l-25.8-15h-17.19v-4.3H-99l25.8,10.75h34.4Zm0-8.6H4.19v4.3H-13l-25.8,6.45H-73.2L-99,94.45h-17.19v-4.3H-99l25.8,2.15h34.4Zm0-8.6H4.19v4.3H-13L-38.8,83.7H-73.2L-99,85.85h-17.19v-4.3H-99l25.8-6.45h34.4Zm0-8.6H4.19v4.3H-13L-38.8,66.5H-73.2L-99,77.25h-17.19V73H-99L-73.2,57.9h34.4Z"/><path class="cls-2" d="M155-27.95h17.19v8.6H155l-25.8-15H94.8L69-19.35H51.81v-8.6H69L94.8-38.7h34.4Zm0-17.2h17.19v8.6H155L129.2-43H94.8L69-36.55H51.81v-8.6H69L94.8-47.3h34.4Zm0,81.7h17.19v8.6H155L129.2,47.3H94.8L69,45.15H51.81v-8.6H69L94.8,43h34.4Zm0-17.2h17.19V28H155L129.2,38.7H94.8L69,28H51.81v-8.6H69l25.8,15h34.4Zm0-8.6h17.19v4.3H155L129.2,30.1H94.8L69,15.05H51.81v-4.3H69L94.8,21.5h34.4Zm0-8.6h17.19v4.3H155L129.2,12.9H94.8L69,6.45H51.81V2.15H69L94.8,4.3h34.4Zm0-8.6h17.19v4.3H155L129.2-4.3H94.8L69-2.15H51.81v-4.3H69L94.8-12.9h34.4Zm0-8.6h17.19v4.3H155L129.2-21.5H94.8L69-10.75H51.81V-15H69l25.8-15h34.4Z"/><path class="cls-2" d="M43-27.95H60.19v8.6H43l-25.8-15H-17.2l-25.8,15H-60.19v-8.6H-43L-17.2-38.7H17.2Zm0-17.2H60.19v8.6H43L17.2-43H-17.2L-43-36.55H-60.19v-8.6H-43l25.8-2.15H17.2Zm0,81.7H60.19v8.6H43L17.2,47.3H-17.2L-43,45.15H-60.19v-8.6H-43L-17.2,43H17.2Zm0-17.2H60.19V28H43L17.2,38.7H-17.2L-43,28H-60.19v-8.6H-43l25.8,15H17.2Zm0-8.6H60.19v4.3H43L17.2,30.1H-17.2l-25.8-15H-60.19v-4.3H-43L-17.2,21.5H17.2Zm0-8.6H60.19v4.3H43L17.2,12.9H-17.2L-43,6.45H-60.19V2.15H-43L-17.2,4.3H17.2Zm0-8.6H60.19v4.3H43L17.2-4.3H-17.2L-43-2.15H-60.19v-4.3H-43l25.8-6.45H17.2ZM43-15H60.19v4.3H43L17.2-21.5H-17.2L-43-10.75H-60.19V-15H-43l25.8-15H17.2Z"/></pattern><linearGradient id="linear-gradient" y1="72" x2="252" y2="72" gradientUnits="userSpaceOnUse"><stop offset="0"/><stop offset="0.53" stop-color="#231f20" stop-opacity="0.5"/><stop offset="1"/></linearGradient><pattern id="New_Pattern_4" data-name="New Pattern 4" width="8.23" height="6.81" patternTransform="translate(1.34 3.28) scale(0.75)" patternUnits="userSpaceOnUse" viewBox="0 0 8.23 6.81"><rect class="cls-1" width="8.23" height="6.81"/><polygon class="cls-3" points="7.43 8.49 1.73 13.09 0.8 11.94 6.5 7.34 7.43 8.49"/><polygon class="cls-3" points="7.43 1.68 1.73 6.28 0.8 5.13 6.5 0.53 7.43 1.68"/><polygon class="cls-3" points="7.43 -5.13 1.73 -0.53 0.8 -1.68 6.5 -6.28 7.43 -5.13"/></pattern><linearGradient id="linear-gradient-2" x1="27.25" y1="20.57" x2="52.09" y2="40.05" gradientUnits="userSpaceOnUse"><stop offset="0" stop-color="#ffc1ff" stop-opacity="0.7"/><stop offset="0.11" stop-color="#f0c3fa" stop-opacity="0.75"/><stop offset="0.31" stop-color="#c7c9ef" stop-opacity="0.87"/><stop offset="0.48" stop-color="#9ccfe2"/><stop offset="0.72" stop-color="#c8dacb" stop-opacity="0.91"/><stop offset="1" stop-color="#ffe8af" stop-opacity="0.8"/></linearGradient></defs><g id="Layer_2" data-name="Layer 2"><g id="Layer_1-2" data-name="Layer 1"><rect class="cls-4" width="252" height="144" rx="14.78"/><rect class="cls-5" width="252" height="144" rx="14.78"/><rect class="cls-6" width="252" height="144" rx="14.78"/><rect class="cls-7" x="24.66" y="19.17" width="32" height="23.82" rx="3.17"/><rect class="cls-8" x="35.33" y="27.74" width="10.65" height="6.67" rx="0.32"/><rect class="cls-9" x="25.64" y="19.9" width="30.04" height="22.36" rx="3.17"/><rect class="cls-10" x="24.66" y="19.17" width="32" height="23.82" rx="3.17"/><text class="cls-11" transform="translate(173.21 26.01) scale(1.07 1)">DI<tspan class="cls-12" x="11.39" y="0">S</tspan><tspan class="cls-13" x="18.02" y="0">C</tspan><tspan class="cls-14" x="25.75" y="0">O</tspan><tspan x="34.35" y="0">VER</tspan></text><ellipse class="cls-15" cx="205.4" cy="22.53" rx="3.55" ry="3.49"/></g></g></svg>